<svg width="176" height="96" viewBox="0 0 176 96" fill="none" xmlns="http://www.w3.org/2000/svg">
<g opacity="0.6">
<path d="M19.04 38.29V37.29H18.1384L18.0453 38.1868L19.04 38.29ZM15.75 70V71H16.6516L16.7447 70.1032L15.75 70ZM5.95 70L4.95539 69.8963L4.84029 71H5.95V70ZM11.06 21V20H10.1589L10.0654 20.8963L11.06 21ZM20.23 21L21.1022 20.5109L20.8158 20H20.23V21ZM38.01 52.71L37.1378 53.1991L37.4242 53.71H38.01V52.71ZM38.15 52.71V53.71H39.0496L39.1444 52.8154L38.15 52.71ZM41.51 21V20H40.6104L40.5156 20.8946L41.51 21ZM51.31 21L52.3046 21.1037L52.4197 20H51.31V21ZM46.2 70V71H47.1011L47.1946 70.1037L46.2 70ZM37.03 70L36.1586 70.4905L36.4454 71H37.03V70ZM19.18 38.29L20.0514 37.7995L19.7646 37.29H19.18V38.29ZM18.0453 38.1868L14.7553 69.8968L16.7447 70.1032L20.0347 38.3932L18.0453 38.1868ZM15.75 69H5.95V71H15.75V69ZM6.94461 70.1037L12.0546 21.1037L10.0654 20.8963L4.95539 69.8963L6.94461 70.1037ZM11.06 22H20.23V20H11.06V22ZM19.3578 21.4891L37.1378 53.1991L38.8822 52.2209L21.1022 20.5109L19.3578 21.4891ZM38.01 53.71H38.15V51.71H38.01V53.71ZM39.1444 52.8154L42.5044 21.1054L40.5156 20.8946L37.1556 52.6046L39.1444 52.8154ZM41.51 22H51.31V20H41.51V22ZM50.3154 20.8963L45.2054 69.8963L47.1946 70.1037L52.3046 21.1037L50.3154 20.8963ZM46.2 69H37.03V71H46.2V69ZM37.9014 69.5095L20.0514 37.7995L18.3086 38.7805L36.1586 70.4905L37.9014 69.5095ZM19.18 37.29H19.04V39.29H19.18V37.29ZM70.0782 49V48H69.1762L69.0835 48.8972L70.0782 49ZM67.9082 70V71H68.8102L68.9029 70.1028L67.9082 70ZM58.1082 70L57.1136 69.8963L56.9985 71H58.1082V70ZM63.2182 21V20H62.3171L62.2236 20.8963L63.2182 21ZM93.2482 21L94.2424 21.1077L94.3624 20H93.2482V21ZM92.3382 29.4V30.4H93.2357L93.3324 29.5077L92.3382 29.4ZM72.1082 29.4V28.4H71.2032L71.1132 29.3005L72.1082 29.4ZM70.9882 40.6L69.9932 40.5005L69.8832 41.6H70.9882V40.6ZM87.0182 40.6L88.0124 40.7077L88.1324 39.6H87.0182V40.6ZM86.1082 49V50H87.0057L87.1024 49.1077L86.1082 49ZM69.0835 48.8972L66.9135 69.8972L68.9029 70.1028L71.0729 49.1028L69.0835 48.8972ZM67.9082 69H58.1082V71H67.9082V69ZM59.1028 70.1037L64.2128 21.1037L62.2236 20.8963L57.1136 69.8963L59.1028 70.1037ZM63.2182 22H93.2482V20H63.2182V22ZM92.254 20.8923L91.344 29.2923L93.3324 29.5077L94.2424 21.1077L92.254 20.8923ZM92.3382 28.4H72.1082V30.4H92.3382V28.4ZM71.1132 29.3005L69.9932 40.5005L71.9832 40.6995L73.1032 29.4995L71.1132 29.3005ZM70.9882 41.6H87.0182V39.6H70.9882V41.6ZM86.024 40.4923L85.114 48.8923L87.1024 49.1077L88.0124 40.7077L86.024 40.4923ZM86.1082 48H70.0782V50H86.1082V48ZM118.873 29.4V28.4H117.971L117.878 29.2971L118.873 29.4ZM114.673 70V71H115.574L115.667 70.1029L114.673 70ZM104.873 70L103.878 69.8971L103.764 71H104.873V70ZM109.073 29.4L110.067 29.5029L110.181 28.4H109.073V29.4ZM95.8426 29.4L94.8484 29.2923L94.7284 30.4H95.8426V29.4ZM96.7526 21V20H95.8551L95.7584 20.8923L96.7526 21ZM133.013 21L134.007 21.1077L134.127 20H133.013V21ZM132.103 29.4V30.4H133L133.097 29.5077L132.103 29.4ZM117.878 29.2971L113.678 69.8971L115.667 70.1029L119.867 29.5029L117.878 29.2971ZM114.673 69H104.873V71H114.673V69ZM105.867 70.1029L110.067 29.5029L108.078 29.2971L103.878 69.8971L105.867 70.1029ZM109.073 28.4H95.8426V30.4H109.073V28.4ZM96.8368 29.5077L97.7468 21.1077L95.7584 20.8923L94.8484 29.2923L96.8368 29.5077ZM96.7526 22H133.013V20H96.7526V22ZM132.018 20.8923L131.108 29.2923L133.097 29.5077L134.007 21.1077L132.018 20.8923ZM132.103 28.4H118.873V30.4H132.103V28.4ZM138.218 45.15L137.223 45.0446L137.157 45.6717L137.694 46.0019L138.218 45.15ZM140.318 25.34L139.839 24.4618L139.379 24.7128L139.323 25.2346L140.318 25.34ZM148.928 20.65V19.65H148.673L148.449 19.7718L148.928 20.65ZM166.638 20.65L167.161 19.7981L166.921 19.65H166.638V20.65ZM174.268 25.34L175.262 25.4447L175.328 24.818L174.791 24.4881L174.268 25.34ZM173.288 34.65V35.65H174.188L174.282 34.7547L173.288 34.65ZM163.488 34.65L162.493 34.5505L162.383 35.65H163.488V34.65ZM164.048 29.05L165.043 29.1495L165.153 28.05H164.048V29.05ZM149.698 29.05V28.05H148.8L148.703 28.9428L149.698 29.05ZM148.438 40.74L147.443 40.6328L147.324 41.74H148.438V40.74ZM164.468 40.74L164.991 39.8881L164.751 39.74H164.468V40.74ZM172.098 45.43L173.092 45.5332L173.157 44.9075L172.621 44.5781L172.098 45.43ZM169.998 65.66L170.476 66.5382L170.938 66.2865L170.992 65.7633L169.998 65.66ZM161.388 70.35V71.35H161.642L161.866 71.2282L161.388 70.35ZM142.978 70.35L142.454 71.2019L142.695 71.35H142.978V70.35ZM135.348 65.66L134.353 65.5553L134.287 66.182L134.824 66.5119L135.348 65.66ZM136.328 56.35V55.35H135.427L135.333 56.2453L136.328 56.35ZM146.128 56.35L147.123 56.4495L147.233 55.35H146.128V56.35ZM145.568 61.95L144.573 61.8505L144.463 62.95H145.568V61.95ZM160.618 61.95V62.95H161.519L161.612 62.0535L160.618 61.95ZM161.878 49.84L162.872 49.9435L162.987 48.84H161.878V49.84ZM145.848 49.84L145.324 50.6919L145.565 50.84H145.848V49.84ZM139.212 45.2554L141.312 25.4454L139.323 25.2346L137.223 45.0446L139.212 45.2554ZM140.796 26.2182L149.406 21.5282L148.449 19.7718L139.839 24.4618L140.796 26.2182ZM148.928 21.65H166.638V19.65H148.928V21.65ZM166.114 21.5019L173.744 26.1919L174.791 24.4881L167.161 19.7981L166.114 21.5019ZM173.273 25.2353L172.293 34.5453L174.282 34.7547L175.262 25.4447L173.273 25.2353ZM173.288 33.65H163.488V35.65H173.288V33.65ZM164.483 34.7495L165.043 29.1495L163.053 28.9505L162.493 34.5505L164.483 34.7495ZM164.048 28.05H149.698V30.05H164.048V28.05ZM148.703 28.9428L147.443 40.6328L149.432 40.8472L150.692 29.1572L148.703 28.9428ZM148.438 41.74H164.468V39.74H148.438V41.74ZM163.944 41.5919L171.574 46.2819L172.621 44.5781L164.991 39.8881L163.944 41.5919ZM171.103 45.3267L169.003 65.5567L170.992 65.7633L173.092 45.5332L171.103 45.3267ZM169.519 64.7818L160.909 69.4718L161.866 71.2282L170.476 66.5382L169.519 64.7818ZM161.388 69.35H142.978V71.35H161.388V69.35ZM143.501 69.4981L135.871 64.8081L134.824 66.5119L142.454 71.2019L143.501 69.4981ZM136.342 65.7647L137.322 56.4547L135.333 56.2453L134.353 65.5553L136.342 65.7647ZM136.328 57.35H146.128V55.35H136.328V57.35ZM145.133 56.2505L144.573 61.8505L146.563 62.0495L147.123 56.4495L145.133 56.2505ZM145.568 62.95H160.618V60.95H145.568V62.95ZM161.612 62.0535L162.872 49.9435L160.883 49.7365L159.623 61.8465L161.612 62.0535ZM161.878 48.84H145.848V50.84H161.878V48.84ZM146.371 48.9881L138.741 44.2981L137.694 46.0019L145.324 50.6919L146.371 48.9881Z" fill="black"/>
</g>
<path d="M8.7047 90.5114C8.21898 90.7742 8.03833 91.3811 8.30119 91.8668C8.56406 92.3525 9.1709 92.5332 9.65662 92.2703L8.7047 90.5114ZM86.4308 86.5103L86.7781 85.5726L86.7448 85.5602L86.7107 85.5503L86.4308 86.5103ZM158.45 80.62L147.025 82.2943L154.187 91.3515L158.45 80.62ZM9.18066 91.3908C9.65662 92.2703 9.65637 92.2704 9.65625 92.2705C9.65638 92.2704 9.65638 92.2704 9.65663 92.2703C9.65713 92.27 9.65814 92.2695 9.65964 92.2687C9.66264 92.2671 9.66763 92.2644 9.67461 92.2607C9.68856 92.2532 9.71045 92.2417 9.74018 92.2261C9.79964 92.195 9.89048 92.1479 10.0121 92.0865C10.2552 91.9636 10.6213 91.783 11.105 91.5566C12.0725 91.1038 13.5104 90.4676 15.3768 89.7426C19.1101 88.2924 24.555 86.4877 31.3774 85.0826C45.0212 82.2725 64.1646 81.0617 86.151 87.4704L86.7107 85.5503C64.3501 79.0325 44.8684 80.262 30.9739 83.1237C24.0271 84.5545 18.4745 86.3937 14.6526 87.8783C12.7414 88.6207 11.2623 89.2748 10.2572 89.7452C9.75457 89.9805 9.37042 90.1699 9.10994 90.3015C8.97971 90.3673 8.88038 90.4187 8.81262 90.4542C8.77875 90.4719 8.75276 90.4857 8.73474 90.4953C8.72574 90.5001 8.71872 90.5038 8.71371 90.5065C8.71121 90.5079 8.7092 90.5089 8.7077 90.5097C8.70695 90.5101 8.7062 90.5106 8.70582 90.5108C8.7052 90.5111 8.7047 90.5114 9.18066 91.3908ZM86.0836 87.4481C98.5422 92.0619 111.536 93.7645 123.121 93.4248C134.691 93.0855 144.93 90.7064 151.855 87.0876L150.929 85.315C144.351 88.7523 134.434 91.0922 123.063 91.4257C111.705 91.7587 98.9702 90.0877 86.7781 85.5726L86.0836 87.4481Z" fill="url(#paint0_linear_6_3)"/>
<defs>
<linearGradient id="paint0_linear_6_3" x1="161.697" y1="82.7677" x2="81.7036" y2="158.546" gradientUnits="userSpaceOnUse">
<stop stop-color="#F10C6D"/>
<stop offset="1" stop-color="#F10C6D" stop-opacity="0"/>
</linearGradient>
</defs>
</svg>
