<svg width="56" height="21" viewBox="0 0 56 21" fill="none" xmlns="http://www.w3.org/2000/svg">
<path d="M6.16 7.41V6.41H5.25839L5.16534 7.3068L6.16 7.41ZM4.75 21V22H5.65162L5.74466 21.1032L4.75 21ZM0.55 21L-0.444606 20.8963L-0.559709 22H0.55V21ZM2.74 -1.43051e-06V-1H1.83886L1.74539 -0.103725L2.74 -1.43051e-06ZM6.67 -1.43051e-06L7.54224 -0.489074L7.25576 -1H6.67V-1.43051e-06ZM14.29 13.59L13.4178 14.0791L13.7042 14.59H14.29V13.59ZM14.35 13.59V14.59H15.2496L15.3444 13.6954L14.35 13.59ZM15.79 -1.43051e-06V-1H14.8904L14.7956 -0.105372L15.79 -1.43051e-06ZM19.99 -1.43051e-06L20.9846 0.103722L21.0997 -1H19.99V-1.43051e-06ZM17.8 21V22H18.7011L18.7946 21.1037L17.8 21ZM13.87 21L12.9986 21.4905L13.2854 22H13.87V21ZM6.22 7.41L7.09142 6.91946L6.80464 6.41H6.22V7.41ZM5.16534 7.3068L3.75534 20.8968L5.74466 21.1032L7.15466 7.5132L5.16534 7.3068ZM4.75 20H0.55V22H4.75V20ZM1.54461 21.1037L3.73461 0.103722L1.74539 -0.103725L-0.444606 20.8963L1.54461 21.1037ZM2.74 0.999999H6.67V-1H2.74V0.999999ZM5.79776 0.489071L13.4178 14.0791L15.1622 13.1009L7.54224 -0.489074L5.79776 0.489071ZM14.29 14.59H14.35V12.59H14.29V14.59ZM15.3444 13.6954L16.7844 0.105369L14.7956 -0.105372L13.3556 13.4846L15.3444 13.6954ZM15.79 0.999999H19.99V-1H15.79V0.999999ZM18.9954 -0.103725L16.8054 20.8963L18.7946 21.1037L20.9846 0.103722L18.9954 -0.103725ZM17.8 20H13.87V22H17.8V20ZM14.7414 20.5095L7.09142 6.91946L5.34858 7.90053L12.9986 21.4905L14.7414 20.5095ZM6.22 6.41H6.16V8.41H6.22V6.41ZM28.0335 12V11H27.1315L27.0388 11.8972L28.0335 12ZM27.1035 21V22H28.0055L28.0982 21.1028L27.1035 21ZM22.9035 21L21.9089 20.8963L21.7938 22H22.9035V21ZM25.0935 -1.43051e-06V-1H24.1924L24.0989 -0.103725L25.0935 -1.43051e-06ZM37.9635 -1.43051e-06L38.9577 0.107702L39.0777 -1H37.9635V-1.43051e-06ZM37.5735 3.6V4.6H38.471L38.5677 3.7077L37.5735 3.6ZM28.9035 3.6V2.6H27.9985L27.9085 3.50049L28.9035 3.6ZM28.4235 8.4L27.4285 8.3005L27.3185 9.4H28.4235V8.4ZM35.2935 8.4L36.2877 8.5077L36.4077 7.4H35.2935V8.4ZM34.9035 12V13H35.801L35.8977 12.1077L34.9035 12ZM27.0388 11.8972L26.1088 20.8972L28.0982 21.1028L29.0282 12.1028L27.0388 11.8972ZM27.1035 20H22.9035V22H27.1035V20ZM23.8981 21.1037L26.0881 0.103722L24.0989 -0.103725L21.9089 20.8963L23.8981 21.1037ZM25.0935 0.999999H37.9635V-1H25.0935V0.999999ZM36.9693 -0.107705L36.5793 3.4923L38.5677 3.7077L38.9577 0.107702L36.9693 -0.107705ZM37.5735 2.6H28.9035V4.6H37.5735V2.6ZM27.9085 3.50049L27.4285 8.3005L29.4186 8.4995L29.8986 3.6995L27.9085 3.50049ZM28.4235 9.4H35.2935V7.4H28.4235V9.4ZM34.2993 8.2923L33.9093 11.8923L35.8977 12.1077L36.2877 8.5077L34.2993 8.2923ZM34.9035 11H28.0335V13H34.9035V11ZM48.9454 3.6V2.6H48.0435L47.9507 3.4971L48.9454 3.6ZM47.1454 21V22H48.0473L48.1401 21.1029L47.1454 21ZM42.9454 21L41.9507 20.8971L41.8366 22H42.9454V21ZM44.7454 3.6L45.7401 3.7029L45.8542 2.6H44.7454V3.6ZM39.0754 3.6L38.0812 3.4923L37.9612 4.6H39.0754V3.6ZM39.4654 -1.43051e-06V-1H38.5679L38.4712 -0.107705L39.4654 -1.43051e-06ZM55.0054 -1.43051e-06L55.9996 0.107702L56.1196 -1H55.0054V-1.43051e-06ZM54.6154 3.6V4.6H55.5129L55.6096 3.7077L54.6154 3.6ZM47.9507 3.4971L46.1507 20.8971L48.1401 21.1029L49.9401 3.7029L47.9507 3.4971ZM47.1454 20H42.9454V22H47.1454V20ZM43.9401 21.1029L45.7401 3.7029L43.7507 3.4971L41.9507 20.8971L43.9401 21.1029ZM44.7454 2.6H39.0754V4.6H44.7454V2.6ZM40.0696 3.7077L40.4596 0.107702L38.4712 -0.107705L38.0812 3.4923L40.0696 3.7077ZM39.4654 0.999999H55.0054V-1H39.4654V0.999999ZM54.0112 -0.107705L53.6212 3.4923L55.6096 3.7077L55.9996 0.107702L54.0112 -0.107705ZM54.6154 2.6H48.9454V4.6H54.6154V2.6Z" fill="#2E1720"/>
</svg>
