<svg width="170" height="51" viewBox="0 0 170 51" fill="none" xmlns="http://www.w3.org/2000/svg">
<g opacity="0.6">
<path d="M14.04 18.29V17.29H13.1384L13.0453 18.1868L14.04 18.29ZM10.75 50V51H11.6516L11.7447 50.1032L10.75 50ZM0.95 50L-0.0446062 49.8963L-0.159708 51H0.95V50ZM6.06 0.999996V-3.8147e-06H5.15886L5.06539 0.896273L6.06 0.999996ZM15.23 0.999996L16.1022 0.510923L15.8158 -3.8147e-06H15.23V0.999996ZM33.01 32.71L32.1378 33.1991L32.4242 33.71H33.01V32.71ZM33.15 32.71V33.71H34.0496L34.1444 32.8154L33.15 32.71ZM36.51 0.999996V-3.8147e-06H35.6104L35.5156 0.894627L36.51 0.999996ZM46.31 0.999996L47.3046 1.10372L47.4197 -3.8147e-06H46.31V0.999996ZM41.2 50V51H42.1011L42.1946 50.1037L41.2 50ZM32.03 50L31.1586 50.4905L31.4454 51H32.03V50ZM14.18 18.29L15.0514 17.7995L14.7646 17.29H14.18V18.29ZM13.0453 18.1868L9.75534 49.8968L11.7447 50.1032L15.0347 18.3932L13.0453 18.1868ZM10.75 49H0.95V51H10.75V49ZM1.94461 50.1037L7.05461 1.10372L5.06539 0.896273L-0.0446062 49.8963L1.94461 50.1037ZM6.06 2H15.23V-3.8147e-06H6.06V2ZM14.3578 1.48907L32.1378 33.1991L33.8822 32.2209L16.1022 0.510923L14.3578 1.48907ZM33.01 33.71H33.15V31.71H33.01V33.71ZM34.1444 32.8154L37.5044 1.10537L35.5156 0.894627L32.1556 32.6046L34.1444 32.8154ZM36.51 2H46.31V-3.8147e-06H36.51V2ZM45.3154 0.896273L40.2054 49.8963L42.1946 50.1037L47.3046 1.10372L45.3154 0.896273ZM41.2 49H32.03V51H41.2V49ZM32.9014 49.5095L15.0514 17.7995L13.3086 18.7805L31.1586 50.4905L32.9014 49.5095ZM14.18 17.29H14.04V19.29H14.18V17.29ZM65.0782 29V28H64.1762L64.0835 28.8972L65.0782 29ZM62.9082 50V51H63.8102L63.9029 50.1028L62.9082 50ZM53.1082 50L52.1136 49.8963L51.9985 51H53.1082V50ZM58.2182 0.999996V-3.8147e-06H57.3171L57.2236 0.896273L58.2182 0.999996ZM88.2482 0.999996L89.2424 1.1077L89.3624 -3.8147e-06H88.2482V0.999996ZM87.3382 9.4V10.4H88.2357L88.3324 9.5077L87.3382 9.4ZM67.1082 9.4V8.4H66.2032L66.1132 9.30049L67.1082 9.4ZM65.9882 20.6L64.9932 20.5005L64.8832 21.6H65.9882V20.6ZM82.0182 20.6L83.0124 20.7077L83.1324 19.6H82.0182V20.6ZM81.1082 29V30H82.0057L82.1024 29.1077L81.1082 29ZM64.0835 28.8972L61.9135 49.8972L63.9029 50.1028L66.0729 29.1028L64.0835 28.8972ZM62.9082 49H53.1082V51H62.9082V49ZM54.1028 50.1037L59.2128 1.10372L57.2236 0.896273L52.1136 49.8963L54.1028 50.1037ZM58.2182 2H88.2482V-3.8147e-06H58.2182V2ZM87.254 0.892294L86.344 9.29229L88.3324 9.5077L89.2424 1.1077L87.254 0.892294ZM87.3382 8.4H67.1082V10.4H87.3382V8.4ZM66.1132 9.30049L64.9932 20.5005L66.9832 20.6995L68.1032 9.4995L66.1132 9.30049ZM65.9882 21.6H82.0182V19.6H65.9882V21.6ZM81.024 20.4923L80.114 28.8923L82.1024 29.1077L83.0124 20.7077L81.024 20.4923ZM81.1082 28H65.0782V30H81.1082V28ZM113.873 9.4V8.4H112.971L112.878 9.2971L113.873 9.4ZM109.673 50V51H110.574L110.667 50.1029L109.673 50ZM99.8726 50L98.8779 49.8971L98.7638 51H99.8726V50ZM104.073 9.4L105.067 9.5029L105.181 8.4H104.073V9.4ZM90.8426 9.4L89.8484 9.29229L89.7284 10.4H90.8426V9.4ZM91.7526 0.999996V-3.8147e-06H90.8551L90.7584 0.892294L91.7526 0.999996ZM128.013 0.999996L129.007 1.1077L129.127 -3.8147e-06H128.013V0.999996ZM127.103 9.4V10.4H128L128.097 9.5077L127.103 9.4ZM112.878 9.2971L108.678 49.8971L110.667 50.1029L114.867 9.5029L112.878 9.2971ZM109.673 49H99.8726V51H109.673V49ZM100.867 50.1029L105.067 9.5029L103.078 9.2971L98.8779 49.8971L100.867 50.1029ZM104.073 8.4H90.8426V10.4H104.073V8.4ZM91.8368 9.5077L92.7468 1.1077L90.7584 0.892294L89.8484 9.29229L91.8368 9.5077ZM91.7526 2H128.013V-3.8147e-06H91.7526V2ZM127.018 0.892294L126.108 9.29229L128.097 9.5077L129.007 1.1077L127.018 0.892294ZM127.103 8.4H113.873V10.4H127.103V8.4ZM133.218 25.15L132.223 25.0446L132.157 25.6717L132.694 26.0019L133.218 25.15ZM135.318 5.34L134.839 4.46183L134.379 4.71282L134.323 5.23458L135.318 5.34ZM143.928 0.649998V-0.350002H143.673L143.449 -0.22817L143.928 0.649998ZM161.638 0.649998L162.161 -0.201929L161.921 -0.350002H161.638V0.649998ZM169.268 5.34L170.262 5.44468L170.328 4.81804L169.791 4.48807L169.268 5.34ZM168.288 14.65V15.65H169.188L169.282 14.7547L168.288 14.65ZM158.488 14.65L157.493 14.5505L157.383 15.65H158.488V14.65ZM159.048 9.05L160.043 9.1495L160.153 8.05H159.048V9.05ZM144.698 9.05V8.05H143.8L143.703 8.94283L144.698 9.05ZM143.438 20.74L142.443 20.6328L142.324 21.74H143.438V20.74ZM159.468 20.74L159.991 19.8881L159.751 19.74H159.468V20.74ZM167.098 25.43L168.092 25.5332L168.157 24.9075L167.621 24.5781L167.098 25.43ZM164.998 45.66L165.476 46.5382L165.938 46.2865L165.992 45.7633L164.998 45.66ZM156.388 50.35V51.35H156.642L156.866 51.2282L156.388 50.35ZM137.978 50.35L137.454 51.2019L137.695 51.35H137.978V50.35ZM130.348 45.66L129.353 45.5553L129.287 46.182L129.824 46.5119L130.348 45.66ZM131.328 36.35V35.35H130.427L130.333 36.2453L131.328 36.35ZM141.128 36.35L142.123 36.4495L142.233 35.35H141.128V36.35ZM140.568 41.95L139.573 41.8505L139.463 42.95H140.568V41.95ZM155.618 41.95V42.95H156.519L156.612 42.0535L155.618 41.95ZM156.878 29.84L157.872 29.9435L157.987 28.84H156.878V29.84ZM140.848 29.84L140.324 30.6919L140.565 30.84H140.848V29.84ZM134.212 25.2554L136.312 5.44542L134.323 5.23458L132.223 25.0446L134.212 25.2554ZM135.796 6.21817L144.406 1.52817L143.449 -0.22817L134.839 4.46183L135.796 6.21817ZM143.928 1.65H161.638V-0.350002H143.928V1.65ZM161.114 1.50192L168.744 6.19193L169.791 4.48807L162.161 -0.201929L161.114 1.50192ZM168.273 5.23532L167.293 14.5453L169.282 14.7547L170.262 5.44468L168.273 5.23532ZM168.288 13.65H158.488V15.65H168.288V13.65ZM159.483 14.7495L160.043 9.1495L158.053 8.95049L157.493 14.5505L159.483 14.7495ZM159.048 8.05H144.698V10.05H159.048V8.05ZM143.703 8.94283L142.443 20.6328L144.432 20.8472L145.692 9.15716L143.703 8.94283ZM143.438 21.74H159.468V19.74H143.438V21.74ZM158.944 21.5919L166.574 26.2819L167.621 24.5781L159.991 19.8881L158.944 21.5919ZM166.103 25.3267L164.003 45.5567L165.992 45.7633L168.092 25.5332L166.103 25.3267ZM164.519 44.7818L155.909 49.4718L156.866 51.2282L165.476 46.5382L164.519 44.7818ZM156.388 49.35H137.978V51.35H156.388V49.35ZM138.501 49.4981L130.871 44.8081L129.824 46.5119L137.454 51.2019L138.501 49.4981ZM131.342 45.7647L132.322 36.4547L130.333 36.2453L129.353 45.5553L131.342 45.7647ZM131.328 37.35H141.128V35.35H131.328V37.35ZM140.133 36.2505L139.573 41.8505L141.563 42.0495L142.123 36.4495L140.133 36.2505ZM140.568 42.95H155.618V40.95H140.568V42.95ZM156.612 42.0535L157.872 29.9435L155.883 29.7365L154.623 41.8465L156.612 42.0535ZM156.878 28.84H140.848V30.84H156.878V28.84ZM141.371 28.9881L133.741 24.2981L132.694 26.0019L140.324 30.6919L141.371 28.9881Z" fill="black"/>
</g>
</svg>
